<svg width="86" height="65" viewBox="0 0 86 65" fill="none" xmlns="http://www.w3.org/2000/svg">
<path d="M78.1958 0H86V42.2937C86 46.6603 84.9615 50.559 82.8846 53.9899C80.8287 57.4 77.9231 60.0928 74.1678 62.0681C70.4126 64.0227 66.007 65 60.951 65C55.895 65 51.4894 64.0227 47.7342 62.0681C43.9789 60.0928 41.0629 57.4 38.9859 53.9899C36.93 50.559 35.902 46.6603 35.902 42.2937V0H43.7062V41.6699C43.7062 44.7889 44.3985 47.5648 45.7831 49.9976C47.1678 52.4096 49.1398 54.3122 51.6992 55.7054C54.2797 57.0777 57.3636 57.7639 60.951 57.7639C64.5384 57.7639 67.6223 57.0777 70.2028 55.7054C72.7832 54.3122 74.7552 52.4096 76.1189 49.9976C77.5035 47.5648 78.1958 44.7889 78.1958 41.6699V0Z" fill="#41185C"/>
<path d="M33.6739 7.47862V15.5591L6.20309 27.5041L33.6739 39.537V47.7931L0 32.4227V23.2004L33.6739 7.47862Z" fill="#41185C"/>
</svg>
