<svg width="266" height="41" viewBox="0 0 266 41" fill="none" xmlns="http://www.w3.org/2000/svg">
<path d="M62.404 32C60.316 32 58.708 31.496 57.58 30.488C56.476 29.456 55.924 27.92 55.924 25.88V12.92C55.924 10.88 56.476 9.356 57.58 8.348C58.708 7.316 60.316 6.8 62.404 6.8H67.516V9.536H62.044C61.156 9.536 60.436 9.8 59.884 10.328C59.332 10.856 59.056 11.492 59.056 12.236V26.564C59.056 27.308 59.332 27.944 59.884 28.472C60.436 29 61.156 29.264 62.044 29.264H67.516V32H62.404ZM77.6694 25.628L76.2654 32H73.0614L79.1454 6.8H83.2854L89.2614 32H86.0574L84.6894 25.628H77.6694ZM84.1134 22.928L81.1614 9.176L78.2454 22.928H84.1134ZM96.6428 32H93.7268V6.8H98.8388L104.527 29.336V6.8H107.443V32H102.295L96.6428 9.464V32ZM126.056 6.8V9.428H117.164V17.672H125.156V20.3H117.164V29.372H126.056V32H114.032V6.8H126.056ZM140.17 32C138.082 32 136.474 31.496 135.346 30.488C134.242 29.456 133.69 27.92 133.69 25.88V12.92C133.69 10.88 134.242 9.356 135.346 8.348C136.474 7.316 138.082 6.8 140.17 6.8H145.282V9.536H139.81C138.922 9.536 138.202 9.8 137.65 10.328C137.098 10.856 136.822 11.492 136.822 12.236V26.564C136.822 27.308 137.098 27.944 137.65 28.472C138.202 29 138.922 29.264 139.81 29.264H145.282V32H140.17ZM155.435 25.628L154.031 32H150.827L156.911 6.8H161.051L167.027 32H163.823L162.455 25.628H155.435ZM161.879 22.928L158.927 9.176L156.011 22.928H161.879ZM196.226 32V9.536H190.502V6.8H205.082V9.536H199.358V32H196.226ZM223.263 6.8V9.428H214.371V17.672H222.363V20.3H214.371V29.372H223.263V32H211.239V6.8H223.263ZM237.377 32C235.289 32 233.681 31.496 232.553 30.488C231.449 29.456 230.897 27.92 230.897 25.88V12.92C230.897 10.88 231.449 9.356 232.553 8.348C233.681 7.316 235.289 6.8 237.377 6.8H242.489V9.536H237.017C236.129 9.536 235.409 9.8 234.857 10.328C234.305 10.856 234.029 11.492 234.029 12.236V26.564C234.029 27.308 234.305 27.944 234.857 28.472C235.409 29 236.129 29.264 237.017 29.264H242.489V32H237.377ZM252.426 20.408V32H249.294V6.8H252.426V17.744H259.842V6.8H262.974V32H259.842V20.408H252.426Z" fill="#85848B"/>
<path d="M41.994 4H46V25.4722C46 27.6891 45.4669 29.6684 44.4008 31.4103C43.3455 33.1416 41.854 34.5086 39.9264 35.5115C37.9987 36.5038 35.7373 37 33.142 37C30.5467 37 28.2852 36.5038 26.3576 35.5115C24.4299 34.5086 22.9331 33.1416 21.8669 31.4103C20.8116 29.6684 20.2839 27.6891 20.2839 25.4722V4H24.2899V25.1555C24.2899 26.739 24.6453 28.1483 25.3561 29.3834C26.0668 30.608 27.0791 31.5739 28.3929 32.2812C29.7174 32.9779 31.3005 33.3263 33.142 33.3263C34.9834 33.3263 36.5665 32.9779 37.891 32.2812C39.2156 31.5739 40.2279 30.608 40.9279 29.3834C41.6386 28.1483 41.994 26.739 41.994 25.1555V4Z" fill="#7C6AFA"/>
<path d="M17.2853 7.79684V11.8992L3.18414 17.9636L17.2853 24.0726V28.2642L0 20.4607V15.7787L17.2853 7.79684Z" fill="#7C6AFA"/>
</svg>
