<svg width="137" height="104" viewBox="0 0 137 104" fill="none" xmlns="http://www.w3.org/2000/svg">
<path d="M124.568 0L137 0V67.6699C137 74.6564 135.346 80.8944 132.037 86.3839C128.762 91.8401 124.133 96.1484 118.151 99.309C112.169 102.436 105.151 104 97.0964 104C89.0421 104 82.0239 102.436 76.0417 99.309C70.0595 96.1484 65.4141 91.8401 62.1055 86.3839C58.8303 80.8944 57.1927 74.6564 57.1927 67.6699L57.1927 0L69.625 0L69.625 66.6718C69.625 71.6622 70.7279 76.1037 72.9336 79.9962C75.1393 83.8554 78.2808 86.8996 82.3581 89.1286C86.4688 91.3244 91.3815 92.4223 97.0964 92.4223C102.811 92.4223 107.724 91.3244 111.835 89.1286C115.945 86.8996 119.087 83.8554 121.259 79.9962C123.465 76.1037 124.568 71.6622 124.568 66.6718L124.568 0Z" fill="#7C6AFA"/>
<path d="M53.6433 11.9658L53.6433 24.8945L9.88166 44.0066L53.6433 63.2592L53.6433 76.469L0 51.8762L0 37.1206L53.6433 11.9658Z" fill="#7C6AFA"/>
</svg>
